HIERARCHY
ROOT Hips
{
	OFFSET 0.000000 0.000000 0.000000 
	CHANNELS 6 Xposition Yposition Zposition Zrotation Yrotation Xrotation
	JOINT LeftUpLeg
	{
		OFFSET 1.363060 -1.794630 0.839290 
		CHANNELS 3 Zrotation Yrotation Xrotation
		JOINT LeftLeg
		{
			OFFSET 2.448110 -6.726130 0.000000 
			CHANNELS 3 Zrotation Yrotation Xrotation
			JOINT LeftFoot
			{
				OFFSET 2.562200 -7.039590 0.000000 
				CHANNELS 3 Zrotation Yrotation Xrotation
				JOINT LeftToeBase
				{
					OFFSET 0.157640 -0.433110 2.322550 
					CHANNELS 3 Zrotation Yrotation Xrotation
					End Site
					{
						OFFSET 0.000000 0.000000 0.000000 
					}
				}
			}
		}
	}
	JOINT RightUpLeg
	{
		OFFSET -1.305520 -1.794630 0.839290 
		CHANNELS 3 Zrotation Yrotation Xrotation
		JOINT RightLeg
		{
			OFFSET -2.542530 -6.985550 0.000000 
			CHANNELS 3 Zrotation Yrotation Xrotation
			JOINT RightFoot
			{
				OFFSET -2.568260 -7.056230 0.000000 
				CHANNELS 3 Zrotation Yrotation Xrotation
				JOINT RightToeBase
				{
					OFFSET -0.164730 -0.452590 2.363150 
					CHANNELS 3 Zrotation Yrotation Xrotation
					End Site
					{
						OFFSET 0.000000 0.000000 0.000000 
					}
				}
			}
		}
	}
	JOINT Spine
	{
		OFFSET 0.028270 2.035590 -0.193380 
		CHANNELS 3 Zrotation Yrotation Xrotation
		JOINT Spine1
		{
			OFFSET 0.056720 2.048850 -0.042750 
			CHANNELS 3 Zrotation Yrotation Xrotation
			JOINT Neck1
			{
				OFFSET -0.054170 1.746240 0.172020 
				CHANNELS 3 Zrotation Yrotation Xrotation
				JOINT Head
				{
					OFFSET 0.104070 1.761360 -0.123970 
					CHANNELS 3 Zrotation Yrotation Xrotation
					End Site
					{
						OFFSET 0.000000 0.000000 0.000000 
					}
				}
			}
			JOINT LeftArm
			{
				OFFSET 3.362410 1.200890 -0.311210 
				CHANNELS 3 Zrotation Yrotation Xrotation
				JOINT LeftForeArm
				{
					OFFSET 4.983000 -0.000000 -0.000000 
					CHANNELS 3 Zrotation Yrotation Xrotation
					JOINT LeftHand
					{
						OFFSET 3.483560 -0.000000 -0.000000 
						CHANNELS 3 Zrotation Yrotation Xrotation
						JOINT LeftHandIndex1
						{
							OFFSET 0.715260 -0.000000 -0.000000 
							CHANNELS 3 Zrotation Yrotation Xrotation
							End Site
							{
								OFFSET 0.000000 0.000000 0.000000 
							}
						}
					}
				}
			}
			JOINT RightArm
			{
				OFFSET -3.136600 1.374050 -0.404650 
				CHANNELS 3 Zrotation Yrotation Xrotation
				JOINT RightForeArm
				{
					OFFSET -5.241900 -0.000000 -0.000000 
					CHANNELS 3 Zrotation Yrotation Xrotation
					JOINT RightHand
					{
						OFFSET -3.444170 -0.000000 -0.000000 
						CHANNELS 3 Zrotation Yrotation Xrotation
						JOINT RightHandIndex1
						{
							OFFSET -0.622530 -0.000000 -0.000000 
							CHANNELS 3 Zrotation Yrotation Xrotation
							End Site
							{
								OFFSET 0.000000 0.000000 0.000000 
							}
						}
					}
				}
			}
		}
	}
}
MOTION
Frames: 6
Frame Time: 0.041667
1.344435 17.809718 1.092368 1.294998 -76.591201 14.154949 -1.581443 -22.722520 -2.908949 0.849037 9.305939 29.376016 0.336723 2.585491 15.436561 0.232000 3.100100 8.557700 10.137422 15.769927 -31.939777 -3.011532 -12.843650 36.989365 2.299296 -11.665769 -5.889854 -0.003200 0.362800 -0.996800 1.793636 -5.314238 -5.757790 1.135566 -2.813761 -0.034028 -4.741005 16.639888 -1.976966 -3.478900 8.259000 -0.038800 -66.574875 -0.847343 18.870916 99.228038 -53.570881 -68.179164 -0.248251 -0.780325 27.105774 -7.125000 0.000000 0.000000 72.427293 -30.043202 -12.206722 -72.578669 50.068779 -44.551447 0.494996 0.042858 6.223502 7.125000 0.000000 0.000000 
1.532916 17.814049 1.152650 0.955093 -76.415972 14.826746 -1.332875 -23.206810 -2.680197 0.439358 8.756541 27.524824 0.097721 3.371390 14.581984 0.064900 1.643200 4.520600 9.529162 16.282770 -32.499525 -2.873199 -12.736538 36.355989 2.478485 -12.360779 -5.248633 -0.006400 0.517600 -1.422200 1.881860 -5.424098 -5.822828 1.321740 -2.876300 0.009445 -6.203519 16.300495 -3.669192 -4.243100 8.112600 -0.648200 -66.520153 -1.532354 19.333580 98.202866 -53.598588 -67.221462 -0.224889 -0.771299 27.136920 -7.125000 0.000000 0.000000 72.310033 -29.838161 -11.978195 -72.834138 50.099632 -44.795773 0.486580 0.041701 6.457104 7.125000 0.000000 0.000000 
1.719459 17.816784 1.198003 0.477380 -76.165926 15.772263 -0.916874 -23.598631 -2.764612 0.071911 8.237779 25.854858 0.074559 3.520482 13.878284 0.016500 0.830600 2.282700 8.899188 17.008360 -33.121315 -2.726429 -12.598618 35.640674 2.734834 -13.391394 -4.683956 -0.010400 0.658900 -1.810700 2.028710 -5.640705 -5.913405 1.636978 -2.988507 0.054725 -5.806231 16.446203 -3.269508 -4.045800 8.177900 -0.503000 -66.497121 -2.027690 19.704717 97.361745 -53.627539 -66.429248 -0.199653 -0.765414 27.014869 -7.125000 0.000000 0.000000 72.110265 -29.694897 -11.508747 -73.208523 50.149659 -45.148476 0.472186 0.032768 6.710526 7.125000 0.000000 0.000000 
1.940075 17.828977 1.280507 1.255660 -76.209323 15.488907 -1.009955 -23.975822 -2.738383 -0.224599 7.780053 24.443401 -0.132607 4.055825 12.877610 0.002500 0.324200 0.890800 7.893600 17.297452 -33.837118 -2.538931 -12.435766 34.744994 2.880783 -13.985231 -3.723634 -0.013500 0.750800 -2.063400 2.068850 -5.741519 -6.027093 1.676228 -3.036952 -0.205067 -5.583710 16.566974 -3.121383 -3.909700 8.231700 -0.418200 -66.529382 -2.547236 19.948501 96.433504 -53.645205 -65.541272 -0.175371 -0.757572 27.030315 -7.125000 0.000000 0.000000 71.722153 -29.453050 -10.877846 -73.646605 50.209381 -45.580729 0.459520 0.033619 7.009553 7.125000 0.000000 0.000000 
2.148156 17.845386 1.357882 1.790745 -76.488357 15.346802 -1.185061 -24.308198 -2.659991 -0.443713 7.415628 23.286590 -0.569075 5.146674 11.694816 0.003600 -0.386200 -1.061300 6.894527 17.922851 -34.307225 -2.331278 -12.206017 33.709853 3.060828 -14.739391 -2.901671 -0.010400 0.658600 -1.809800 2.090098 -5.625525 -5.931971 1.774548 -2.988155 -0.010311 -6.080799 16.433945 -3.721785 -4.094300 8.163700 -0.518500 -66.419620 -3.492708 20.233012 95.370419 -53.672082 -64.517330 -0.158478 -0.745843 27.203619 -7.125000 0.000000 0.000000 71.392930 -28.882850 -10.631551 -74.087486 50.301608 -46.027596 0.447140 0.048262 7.407984 7.125000 0.000000 0.000000 
2.349741 17.863961 1.435257 2.032854 -76.779218 15.423397 -1.315008 -24.730252 -2.609458 -0.621476 7.105005 22.292093 -1.049725 6.319235 10.638485 0.027200 -1.064200 -2.925600 5.875538 18.790999 -34.559347 -2.105228 -11.910635 32.543047 3.280262 -15.647875 -2.338547 -0.002700 0.334900 -0.920100 2.091895 -5.457601 -5.828866 1.826301 -2.913557 0.194739 -6.761014 16.229697 -4.482023 -4.398400 8.065700 -0.686400 -66.317556 -4.293601 20.576806 94.386845 -53.686845 -63.571652 -0.148627 -0.734853 27.581406 -7.125000 0.000000 0.000000 71.161621 -28.378691 -10.503367 -74.367326 50.369873 -46.315100 0.439961 0.065797 7.882916 7.125000 0.000000 0.000000 
